# xmcd
#
# Track frame offsets: 
#        180
#        16565
#        29939
#        42424
#        56205
#        75142
#        86506
#        103496
#        122141
#        137709
#        153226
#
# Disc length: 2249 seconds
#
# Revision: 0
# Processed by: cddbd v1.5.1PL0 Copyright (c) Steve Scherf et al.
# Submitted via: ExactAudioCopy v0.90b4
#
DISCID=8b08c70b
DTITLE=GD-Band - GD-Band
DYEAR=1996
DGENRE=Rock
TTITLE0=Queen of the station
TTITLE1=Help me
TTITLE2=I damn them all
TTITLE3=My home is my castle
TTITLE4=Stay
TTITLE5=Troubles
TTITLE6=Hey little girl
TTITLE7=Mugello
TTITLE8=Halleluja
TTITLE9=A bad mistake
TTITLE10=Flip, flop and fly
EXTD=
EXTT0=
EXTT1=
EXTT2=
EXTT3=
EXTT4=
EXTT5=
EXTT6=
EXTT7=
EXTT8=
EXTT9=
EXTT10=
PLAYORDER=
